<?xml version="1.0" encoding="utf-8"?>
<!-- Generator: Adobe Illustrator 22.0.1, SVG Export Plug-In . SVG Version: 6.00 Build 0)  -->
<svg version="1.1" id="Layer_1" xmlns="http://www.w3.org/2000/svg" xmlns:xlink="http://www.w3.org/1999/xlink" x="0px" y="0px"
	 viewBox="0 0 20 20" style="enable-background:new 0 0 20 20;" xml:space="preserve">
<style type="text/css">
	.st0{fill:#FFFFFF;stroke:#000000;stroke-miterlimit:10;}
</style>
<path class="st0" d="M3.1 0h.3v20h-.3c-.9 0-1.6-.8-1.6-1.7V1.7C1.5.8 2.2 0 3.1 0zm10.7 11.9h3.1V13h-1.8v.9h1.6v1h-1.6v2h-1.3v-5zM11 13.1v2.7h.3c.3 0 .5 0 .6-.1.1-.1.2-.2.3-.4s.1-.5.1-.9c0-.5-.1-.9-.2-1.1-.1-.2-.4-.3-.7-.3H11v.1zm-1.2-1.2h1.9c.4 0 .7.1.9.2.2.1.4.3.6.5.1.2.3.5.3.8.1.3.1.6.1 1 0 .5 0 1-.1 1.3-.1.3-.2.5-.4.7-.2.2-.4.3-.6.4-.3.1-.5.1-.7.1h-2v-5zm-2.6 2.2h.3c.2 0 .4-.1.5-.2.1-.1.1-.2.1-.4s0-.3-.1-.4c0-.1-.2-.1-.4-.1h-.4v1.1zM6 11.9h2.1c.5 0 .8.1 1 .4.2.3.3.6.3 1.1 0 .5-.1.9-.4 1.2-.2.3-.6.4-1.1.4h-.7v2H6v-5.1zM4.7 0v20h12.2c.9 0 1.6-.8 1.6-1.7V1.7c0-.9-.7-1.7-1.6-1.7h-1.4v8.7l-2.2-3-2.3 3V0H4.7z"/>
</svg>
